G04 #@! TF.FileFunction,Legend,Top*
%FSLAX46Y46*%
G04 Gerber Fmt 4.6, Leading zero omitted, Abs format (unit mm)*
G04 Created by KiCad (PCBNEW 4.0.2-stable) date 2016 April 06, Wednesday 21:37:21*
%MOMM*%
G01*
G04 APERTURE LIST*
%ADD10C,0.100000*%
%ADD11C,0.250000*%
%ADD12C,0.150000*%
G04 APERTURE END LIST*
D10*
D11*
X161973334Y-109672381D02*
X161973334Y-108672381D01*
X162449524Y-109672381D02*
X162449524Y-108672381D01*
X163020953Y-109672381D01*
X163020953Y-108672381D01*
X163354286Y-108672381D02*
X163925715Y-108672381D01*
X163640000Y-109672381D02*
X163640000Y-108672381D01*
X164259048Y-109148571D02*
X164592382Y-109148571D01*
X164735239Y-109672381D02*
X164259048Y-109672381D01*
X164259048Y-108672381D01*
X164735239Y-108672381D01*
X165735239Y-109672381D02*
X165401905Y-109196190D01*
X165163810Y-109672381D02*
X165163810Y-108672381D01*
X165544763Y-108672381D01*
X165640001Y-108720000D01*
X165687620Y-108767619D01*
X165735239Y-108862857D01*
X165735239Y-109005714D01*
X165687620Y-109100952D01*
X165640001Y-109148571D01*
X165544763Y-109196190D01*
X165163810Y-109196190D01*
X166116191Y-109624762D02*
X166259048Y-109672381D01*
X166497144Y-109672381D01*
X166592382Y-109624762D01*
X166640001Y-109577143D01*
X166687620Y-109481905D01*
X166687620Y-109386667D01*
X166640001Y-109291429D01*
X166592382Y-109243810D01*
X166497144Y-109196190D01*
X166306667Y-109148571D01*
X166211429Y-109100952D01*
X166163810Y-109053333D01*
X166116191Y-108958095D01*
X166116191Y-108862857D01*
X166163810Y-108767619D01*
X166211429Y-108720000D01*
X166306667Y-108672381D01*
X166544763Y-108672381D01*
X166687620Y-108720000D01*
X167116191Y-109672381D02*
X167116191Y-108672381D01*
X167497144Y-108672381D01*
X167592382Y-108720000D01*
X167640001Y-108767619D01*
X167687620Y-108862857D01*
X167687620Y-109005714D01*
X167640001Y-109100952D01*
X167592382Y-109148571D01*
X167497144Y-109196190D01*
X167116191Y-109196190D01*
X168116191Y-109148571D02*
X168449525Y-109148571D01*
X168592382Y-109672381D02*
X168116191Y-109672381D01*
X168116191Y-108672381D01*
X168592382Y-108672381D01*
X169592382Y-109577143D02*
X169544763Y-109624762D01*
X169401906Y-109672381D01*
X169306668Y-109672381D01*
X169163810Y-109624762D01*
X169068572Y-109529524D01*
X169020953Y-109434286D01*
X168973334Y-109243810D01*
X168973334Y-109100952D01*
X169020953Y-108910476D01*
X169068572Y-108815238D01*
X169163810Y-108720000D01*
X169306668Y-108672381D01*
X169401906Y-108672381D01*
X169544763Y-108720000D01*
X169592382Y-108767619D01*
X170020953Y-109672381D02*
X170020953Y-108672381D01*
X170830477Y-109148571D02*
X170497143Y-109148571D01*
X170497143Y-109672381D02*
X170497143Y-108672381D01*
X170973334Y-108672381D01*
X171354286Y-109672381D02*
X171354286Y-108672381D01*
X172401905Y-109577143D02*
X172354286Y-109624762D01*
X172211429Y-109672381D01*
X172116191Y-109672381D01*
X171973333Y-109624762D01*
X171878095Y-109529524D01*
X171830476Y-109434286D01*
X171782857Y-109243810D01*
X171782857Y-109100952D01*
X171830476Y-108910476D01*
X171878095Y-108815238D01*
X171973333Y-108720000D01*
X172116191Y-108672381D01*
X172211429Y-108672381D01*
X172354286Y-108720000D01*
X172401905Y-108767619D01*
X172782857Y-109624762D02*
X172925714Y-109672381D01*
X173163810Y-109672381D01*
X173259048Y-109624762D01*
X173306667Y-109577143D01*
X173354286Y-109481905D01*
X173354286Y-109386667D01*
X173306667Y-109291429D01*
X173259048Y-109243810D01*
X173163810Y-109196190D01*
X172973333Y-109148571D01*
X172878095Y-109100952D01*
X172830476Y-109053333D01*
X172782857Y-108958095D01*
X172782857Y-108862857D01*
X172830476Y-108767619D01*
X172878095Y-108720000D01*
X172973333Y-108672381D01*
X173211429Y-108672381D01*
X173354286Y-108720000D01*
X142240476Y-94432381D02*
X141764285Y-94432381D01*
X141764285Y-93432381D01*
X143002381Y-94432381D02*
X143002381Y-93908571D01*
X142954762Y-93813333D01*
X142859524Y-93765714D01*
X142669047Y-93765714D01*
X142573809Y-93813333D01*
X143002381Y-94384762D02*
X142907143Y-94432381D01*
X142669047Y-94432381D01*
X142573809Y-94384762D01*
X142526190Y-94289524D01*
X142526190Y-94194286D01*
X142573809Y-94099048D01*
X142669047Y-94051429D01*
X142907143Y-94051429D01*
X143002381Y-94003810D01*
X143430952Y-94384762D02*
X143526190Y-94432381D01*
X143716666Y-94432381D01*
X143811905Y-94384762D01*
X143859524Y-94289524D01*
X143859524Y-94241905D01*
X143811905Y-94146667D01*
X143716666Y-94099048D01*
X143573809Y-94099048D01*
X143478571Y-94051429D01*
X143430952Y-93956190D01*
X143430952Y-93908571D01*
X143478571Y-93813333D01*
X143573809Y-93765714D01*
X143716666Y-93765714D01*
X143811905Y-93813333D01*
X144669048Y-94384762D02*
X144573810Y-94432381D01*
X144383333Y-94432381D01*
X144288095Y-94384762D01*
X144240476Y-94289524D01*
X144240476Y-93908571D01*
X144288095Y-93813333D01*
X144383333Y-93765714D01*
X144573810Y-93765714D01*
X144669048Y-93813333D01*
X144716667Y-93908571D01*
X144716667Y-94003810D01*
X144240476Y-94099048D01*
X145145238Y-94432381D02*
X145145238Y-93765714D01*
X145145238Y-93956190D02*
X145192857Y-93860952D01*
X145240476Y-93813333D01*
X145335714Y-93765714D01*
X145430953Y-93765714D01*
X145716667Y-94384762D02*
X145859524Y-94432381D01*
X146097620Y-94432381D01*
X146192858Y-94384762D01*
X146240477Y-94337143D01*
X146288096Y-94241905D01*
X146288096Y-94146667D01*
X146240477Y-94051429D01*
X146192858Y-94003810D01*
X146097620Y-93956190D01*
X145907143Y-93908571D01*
X145811905Y-93860952D01*
X145764286Y-93813333D01*
X145716667Y-93718095D01*
X145716667Y-93622857D01*
X145764286Y-93527619D01*
X145811905Y-93480000D01*
X145907143Y-93432381D01*
X146145239Y-93432381D01*
X146288096Y-93480000D01*
X147097620Y-94384762D02*
X147002382Y-94432381D01*
X146811905Y-94432381D01*
X146716667Y-94384762D01*
X146669048Y-94289524D01*
X146669048Y-93908571D01*
X146716667Y-93813333D01*
X146811905Y-93765714D01*
X147002382Y-93765714D01*
X147097620Y-93813333D01*
X147145239Y-93908571D01*
X147145239Y-94003810D01*
X146669048Y-94099048D01*
X147573810Y-93765714D02*
X147573810Y-94432381D01*
X147573810Y-93860952D02*
X147621429Y-93813333D01*
X147716667Y-93765714D01*
X147859525Y-93765714D01*
X147954763Y-93813333D01*
X148002382Y-93908571D01*
X148002382Y-94432381D01*
X148430953Y-94384762D02*
X148526191Y-94432381D01*
X148716667Y-94432381D01*
X148811906Y-94384762D01*
X148859525Y-94289524D01*
X148859525Y-94241905D01*
X148811906Y-94146667D01*
X148716667Y-94099048D01*
X148573810Y-94099048D01*
X148478572Y-94051429D01*
X148430953Y-93956190D01*
X148430953Y-93908571D01*
X148478572Y-93813333D01*
X148573810Y-93765714D01*
X148716667Y-93765714D01*
X148811906Y-93813333D01*
X149430953Y-94432381D02*
X149335715Y-94384762D01*
X149288096Y-94337143D01*
X149240477Y-94241905D01*
X149240477Y-93956190D01*
X149288096Y-93860952D01*
X149335715Y-93813333D01*
X149430953Y-93765714D01*
X149573811Y-93765714D01*
X149669049Y-93813333D01*
X149716668Y-93860952D01*
X149764287Y-93956190D01*
X149764287Y-94241905D01*
X149716668Y-94337143D01*
X149669049Y-94384762D01*
X149573811Y-94432381D01*
X149430953Y-94432381D01*
X150192858Y-94432381D02*
X150192858Y-93765714D01*
X150192858Y-93956190D02*
X150240477Y-93860952D01*
X150288096Y-93813333D01*
X150383334Y-93765714D01*
X150478573Y-93765714D01*
D12*
X168965112Y-98044904D02*
G75*
G03X168950000Y-95020000I2484888J1524904D01*
G01*
X168950000Y-98020000D02*
X168950000Y-95020000D01*
X173967936Y-96520000D02*
G75*
G03X173967936Y-96520000I-2517936J0D01*
G01*
X164110000Y-96240000D02*
X164110000Y-97790000D01*
X161010000Y-97790000D02*
X161010000Y-96240000D01*
X161010000Y-96240000D02*
X164110000Y-96240000D01*
X161290000Y-99060000D02*
X163830000Y-99060000D01*
X164110000Y-103860000D02*
X164110000Y-105410000D01*
X161010000Y-105410000D02*
X161010000Y-103860000D01*
X161010000Y-103860000D02*
X164110000Y-103860000D01*
X161290000Y-106680000D02*
X163830000Y-106680000D01*
X159590000Y-117270000D02*
X162990000Y-117270000D01*
X159592944Y-117267056D02*
G75*
G02X161290000Y-113170000I1697056J1697056D01*
G01*
X162987056Y-117267056D02*
G75*
G03X161290000Y-113170000I-1697056J1697056D01*
G01*
X156405000Y-108950000D02*
X156405000Y-106950000D01*
X158555000Y-106950000D02*
X158555000Y-108950000D01*
X149839680Y-108181140D02*
X147340320Y-108181140D01*
X147340320Y-107680760D02*
X149590760Y-107680760D01*
X149839680Y-107929680D02*
X147340320Y-107929680D01*
X147340320Y-105679240D02*
X149839680Y-105679240D01*
X149590760Y-105178860D02*
X147589240Y-105178860D01*
X149590760Y-105430320D02*
X147340320Y-105430320D01*
X147340320Y-105430320D02*
X145839180Y-105430320D01*
X145839180Y-105430320D02*
X145839180Y-104681020D01*
X147340320Y-107929680D02*
X145839180Y-107929680D01*
X145839180Y-107929680D02*
X145839180Y-108678980D01*
X149839680Y-107929680D02*
X151340820Y-107929680D01*
X151340820Y-107929680D02*
X151340820Y-108678980D01*
X149839680Y-105430320D02*
X151340820Y-105430320D01*
X151340820Y-105430320D02*
X151340820Y-104681020D01*
X149839680Y-107429300D02*
X149839680Y-108430060D01*
X149839680Y-108430060D02*
X147340320Y-108430060D01*
X147340320Y-108430060D02*
X147340320Y-107429300D01*
X147340320Y-107429300D02*
X149839680Y-107429300D01*
X149839680Y-105930700D02*
X147340320Y-105930700D01*
X147340320Y-105930700D02*
X147340320Y-104929940D01*
X147340320Y-104929940D02*
X148590000Y-104929940D01*
X149839680Y-104929940D02*
X149839680Y-105930700D01*
X148590000Y-104929940D02*
X149839680Y-104929940D01*
X155089860Y-97929700D02*
X150588980Y-97929700D01*
X150588980Y-97929700D02*
X150588980Y-99179380D01*
X150588980Y-99179380D02*
X146591020Y-99179380D01*
X146591020Y-99179380D02*
X146591020Y-97929700D01*
X146591020Y-97929700D02*
X142090140Y-97929700D01*
X142090140Y-97929700D02*
X142090140Y-104681020D01*
X142090140Y-104681020D02*
X143339820Y-104681020D01*
X143339820Y-104681020D02*
X143339820Y-108678980D01*
X143339820Y-108678980D02*
X142090140Y-108678980D01*
X142090140Y-108678980D02*
X142090140Y-115430300D01*
X142090140Y-115430300D02*
X146591020Y-115430300D01*
X146591020Y-115430300D02*
X146591020Y-114180620D01*
X146591020Y-114180620D02*
X150588980Y-114180620D01*
X150588980Y-114180620D02*
X150588980Y-115430300D01*
X150588980Y-115430300D02*
X155089860Y-115430300D01*
X155089860Y-115430300D02*
X155089860Y-108678980D01*
X155089860Y-108678980D02*
X153840180Y-108678980D01*
X153840180Y-108678980D02*
X153840180Y-104681020D01*
X153840180Y-104681020D02*
X155089860Y-104681020D01*
X155089860Y-104681020D02*
X155089860Y-97929700D01*
X144840960Y-107929680D02*
G75*
G03X144840960Y-107929680I-251460J0D01*
G01*
X145087340Y-105430320D02*
G75*
G03X145087340Y-105430320I-248920J0D01*
G01*
X141250000Y-105130000D02*
X141250000Y-106680000D01*
X138150000Y-106680000D02*
X138150000Y-105130000D01*
X138150000Y-105130000D02*
X141250000Y-105130000D01*
X138430000Y-107950000D02*
X140970000Y-107950000D01*
X170460000Y-117830000D02*
X170460000Y-119380000D01*
X167360000Y-119380000D02*
X167360000Y-117830000D01*
X167360000Y-117830000D02*
X170460000Y-117830000D01*
X167640000Y-120650000D02*
X170180000Y-120650000D01*
X170418286Y-93035381D02*
X169942095Y-93035381D01*
X169942095Y-92035381D01*
X171180191Y-93035381D02*
X171180191Y-92511571D01*
X171132572Y-92416333D01*
X171037334Y-92368714D01*
X170846857Y-92368714D01*
X170751619Y-92416333D01*
X171180191Y-92987762D02*
X171084953Y-93035381D01*
X170846857Y-93035381D01*
X170751619Y-92987762D01*
X170704000Y-92892524D01*
X170704000Y-92797286D01*
X170751619Y-92702048D01*
X170846857Y-92654429D01*
X171084953Y-92654429D01*
X171180191Y-92606810D01*
X171608762Y-92987762D02*
X171704000Y-93035381D01*
X171894476Y-93035381D01*
X171989715Y-92987762D01*
X172037334Y-92892524D01*
X172037334Y-92844905D01*
X171989715Y-92749667D01*
X171894476Y-92702048D01*
X171751619Y-92702048D01*
X171656381Y-92654429D01*
X171608762Y-92559190D01*
X171608762Y-92511571D01*
X171656381Y-92416333D01*
X171751619Y-92368714D01*
X171894476Y-92368714D01*
X171989715Y-92416333D01*
X172846858Y-92987762D02*
X172751620Y-93035381D01*
X172561143Y-93035381D01*
X172465905Y-92987762D01*
X172418286Y-92892524D01*
X172418286Y-92511571D01*
X172465905Y-92416333D01*
X172561143Y-92368714D01*
X172751620Y-92368714D01*
X172846858Y-92416333D01*
X172894477Y-92511571D01*
X172894477Y-92606810D01*
X172418286Y-92702048D01*
X173323048Y-93035381D02*
X173323048Y-92368714D01*
X173323048Y-92559190D02*
X173370667Y-92463952D01*
X173418286Y-92416333D01*
X173513524Y-92368714D01*
X173608763Y-92368714D01*
X168013095Y-98877381D02*
X168013095Y-97877381D01*
X168584524Y-98877381D02*
X168155952Y-98305952D01*
X168584524Y-97877381D02*
X168013095Y-98448810D01*
X158607618Y-94856667D02*
X159083809Y-94856667D01*
X158512380Y-95142381D02*
X158845713Y-94142381D01*
X159179047Y-95142381D01*
X159512380Y-94475714D02*
X159512380Y-95142381D01*
X159512380Y-94570952D02*
X159559999Y-94523333D01*
X159655237Y-94475714D01*
X159798095Y-94475714D01*
X159893333Y-94523333D01*
X159940952Y-94618571D01*
X159940952Y-95142381D01*
X160845714Y-95142381D02*
X160845714Y-94618571D01*
X160798095Y-94523333D01*
X160702857Y-94475714D01*
X160512380Y-94475714D01*
X160417142Y-94523333D01*
X160845714Y-95094762D02*
X160750476Y-95142381D01*
X160512380Y-95142381D01*
X160417142Y-95094762D01*
X160369523Y-94999524D01*
X160369523Y-94904286D01*
X160417142Y-94809048D01*
X160512380Y-94761429D01*
X160750476Y-94761429D01*
X160845714Y-94713810D01*
X161464761Y-95142381D02*
X161369523Y-95094762D01*
X161321904Y-94999524D01*
X161321904Y-94142381D01*
X161988571Y-95142381D02*
X161893333Y-95094762D01*
X161845714Y-95047143D01*
X161798095Y-94951905D01*
X161798095Y-94666190D01*
X161845714Y-94570952D01*
X161893333Y-94523333D01*
X161988571Y-94475714D01*
X162131429Y-94475714D01*
X162226667Y-94523333D01*
X162274286Y-94570952D01*
X162321905Y-94666190D01*
X162321905Y-94951905D01*
X162274286Y-95047143D01*
X162226667Y-95094762D01*
X162131429Y-95142381D01*
X161988571Y-95142381D01*
X163179048Y-94475714D02*
X163179048Y-95285238D01*
X163131429Y-95380476D01*
X163083810Y-95428095D01*
X162988571Y-95475714D01*
X162845714Y-95475714D01*
X162750476Y-95428095D01*
X163179048Y-95094762D02*
X163083810Y-95142381D01*
X162893333Y-95142381D01*
X162798095Y-95094762D01*
X162750476Y-95047143D01*
X162702857Y-94951905D01*
X162702857Y-94666190D01*
X162750476Y-94570952D01*
X162798095Y-94523333D01*
X162893333Y-94475714D01*
X163083810Y-94475714D01*
X163179048Y-94523333D01*
X164607619Y-94142381D02*
X164798096Y-94142381D01*
X164893334Y-94190000D01*
X164988572Y-94285238D01*
X165036191Y-94475714D01*
X165036191Y-94809048D01*
X164988572Y-94999524D01*
X164893334Y-95094762D01*
X164798096Y-95142381D01*
X164607619Y-95142381D01*
X164512381Y-95094762D01*
X164417143Y-94999524D01*
X164369524Y-94809048D01*
X164369524Y-94475714D01*
X164417143Y-94285238D01*
X164512381Y-94190000D01*
X164607619Y-94142381D01*
X165893334Y-94475714D02*
X165893334Y-95142381D01*
X165464762Y-94475714D02*
X165464762Y-94999524D01*
X165512381Y-95094762D01*
X165607619Y-95142381D01*
X165750477Y-95142381D01*
X165845715Y-95094762D01*
X165893334Y-95047143D01*
X166226667Y-94475714D02*
X166607619Y-94475714D01*
X166369524Y-94142381D02*
X166369524Y-94999524D01*
X166417143Y-95094762D01*
X166512381Y-95142381D01*
X166607619Y-95142381D01*
X160012381Y-102762381D02*
X160012381Y-101762381D01*
X160393334Y-101762381D01*
X160488572Y-101810000D01*
X160536191Y-101857619D01*
X160583810Y-101952857D01*
X160583810Y-102095714D01*
X160536191Y-102190952D01*
X160488572Y-102238571D01*
X160393334Y-102286190D01*
X160012381Y-102286190D01*
X160917143Y-101762381D02*
X161155238Y-102762381D01*
X161345715Y-102048095D01*
X161536191Y-102762381D01*
X161774286Y-101762381D01*
X162155238Y-102762381D02*
X162155238Y-101762381D01*
X162488572Y-102476667D01*
X162821905Y-101762381D01*
X162821905Y-102762381D01*
X164060000Y-102762381D02*
X164060000Y-101762381D01*
X164536190Y-102762381D02*
X164536190Y-101762381D01*
X165107619Y-102762381D01*
X165107619Y-101762381D01*
X156900952Y-119022381D02*
X156900952Y-118022381D01*
X157281905Y-118022381D01*
X157377143Y-118070000D01*
X157424762Y-118117619D01*
X157472381Y-118212857D01*
X157472381Y-118355714D01*
X157424762Y-118450952D01*
X157377143Y-118498571D01*
X157281905Y-118546190D01*
X156900952Y-118546190D01*
X157900952Y-119022381D02*
X157900952Y-118022381D01*
X158472381Y-119022381D01*
X158472381Y-118022381D01*
X158900952Y-118117619D02*
X158948571Y-118070000D01*
X159043809Y-118022381D01*
X159281905Y-118022381D01*
X159377143Y-118070000D01*
X159424762Y-118117619D01*
X159472381Y-118212857D01*
X159472381Y-118308095D01*
X159424762Y-118450952D01*
X158853333Y-119022381D01*
X159472381Y-119022381D01*
X159853333Y-118117619D02*
X159900952Y-118070000D01*
X159996190Y-118022381D01*
X160234286Y-118022381D01*
X160329524Y-118070000D01*
X160377143Y-118117619D01*
X160424762Y-118212857D01*
X160424762Y-118308095D01*
X160377143Y-118450952D01*
X159805714Y-119022381D01*
X160424762Y-119022381D01*
X160805714Y-118117619D02*
X160853333Y-118070000D01*
X160948571Y-118022381D01*
X161186667Y-118022381D01*
X161281905Y-118070000D01*
X161329524Y-118117619D01*
X161377143Y-118212857D01*
X161377143Y-118308095D01*
X161329524Y-118450952D01*
X160758095Y-119022381D01*
X161377143Y-119022381D01*
X161758095Y-118117619D02*
X161805714Y-118070000D01*
X161900952Y-118022381D01*
X162139048Y-118022381D01*
X162234286Y-118070000D01*
X162281905Y-118117619D01*
X162329524Y-118212857D01*
X162329524Y-118308095D01*
X162281905Y-118450952D01*
X161710476Y-119022381D01*
X162329524Y-119022381D01*
X162710476Y-118736667D02*
X163186667Y-118736667D01*
X162615238Y-119022381D02*
X162948571Y-118022381D01*
X163281905Y-119022381D01*
X160232381Y-108116666D02*
X159756190Y-108450000D01*
X160232381Y-108688095D02*
X159232381Y-108688095D01*
X159232381Y-108307142D01*
X159280000Y-108211904D01*
X159327619Y-108164285D01*
X159422857Y-108116666D01*
X159565714Y-108116666D01*
X159660952Y-108164285D01*
X159708571Y-108211904D01*
X159756190Y-108307142D01*
X159756190Y-108688095D01*
X160232381Y-107164285D02*
X160232381Y-107735714D01*
X160232381Y-107450000D02*
X159232381Y-107450000D01*
X159375238Y-107545238D01*
X159470476Y-107640476D01*
X159518095Y-107735714D01*
X143828855Y-118133121D02*
X143828855Y-117133121D01*
X144209808Y-117133121D01*
X144305046Y-117180740D01*
X144352665Y-117228359D01*
X144400284Y-117323597D01*
X144400284Y-117466454D01*
X144352665Y-117561692D01*
X144305046Y-117609311D01*
X144209808Y-117656930D01*
X143828855Y-117656930D01*
X144828855Y-118133121D02*
X144828855Y-117133121D01*
X144828855Y-117609311D02*
X145400284Y-117609311D01*
X145400284Y-118133121D02*
X145400284Y-117133121D01*
X146066950Y-117133121D02*
X146257427Y-117133121D01*
X146352665Y-117180740D01*
X146447903Y-117275978D01*
X146495522Y-117466454D01*
X146495522Y-117799788D01*
X146447903Y-117990264D01*
X146352665Y-118085502D01*
X146257427Y-118133121D01*
X146066950Y-118133121D01*
X145971712Y-118085502D01*
X145876474Y-117990264D01*
X145828855Y-117799788D01*
X145828855Y-117466454D01*
X145876474Y-117275978D01*
X145971712Y-117180740D01*
X146066950Y-117133121D01*
X146781236Y-117133121D02*
X147352665Y-117133121D01*
X147066950Y-118133121D02*
X147066950Y-117133121D01*
X147876474Y-117133121D02*
X148066951Y-117133121D01*
X148162189Y-117180740D01*
X148257427Y-117275978D01*
X148305046Y-117466454D01*
X148305046Y-117799788D01*
X148257427Y-117990264D01*
X148162189Y-118085502D01*
X148066951Y-118133121D01*
X147876474Y-118133121D01*
X147781236Y-118085502D01*
X147685998Y-117990264D01*
X147638379Y-117799788D01*
X147638379Y-117466454D01*
X147685998Y-117275978D01*
X147781236Y-117180740D01*
X147876474Y-117133121D01*
X149305046Y-118133121D02*
X148971712Y-117656930D01*
X148733617Y-118133121D02*
X148733617Y-117133121D01*
X149114570Y-117133121D01*
X149209808Y-117180740D01*
X149257427Y-117228359D01*
X149305046Y-117323597D01*
X149305046Y-117466454D01*
X149257427Y-117561692D01*
X149209808Y-117609311D01*
X149114570Y-117656930D01*
X148733617Y-117656930D01*
X149733617Y-117609311D02*
X150066951Y-117609311D01*
X150209808Y-118133121D02*
X149733617Y-118133121D01*
X149733617Y-117133121D01*
X150209808Y-117133121D01*
X150590760Y-118085502D02*
X150733617Y-118133121D01*
X150971713Y-118133121D01*
X151066951Y-118085502D01*
X151114570Y-118037883D01*
X151162189Y-117942645D01*
X151162189Y-117847407D01*
X151114570Y-117752169D01*
X151066951Y-117704550D01*
X150971713Y-117656930D01*
X150781236Y-117609311D01*
X150685998Y-117561692D01*
X150638379Y-117514073D01*
X150590760Y-117418835D01*
X150590760Y-117323597D01*
X150638379Y-117228359D01*
X150685998Y-117180740D01*
X150781236Y-117133121D01*
X151019332Y-117133121D01*
X151162189Y-117180740D01*
X151590760Y-118133121D02*
X151590760Y-117133121D01*
X152019331Y-118085502D02*
X152162188Y-118133121D01*
X152400284Y-118133121D01*
X152495522Y-118085502D01*
X152543141Y-118037883D01*
X152590760Y-117942645D01*
X152590760Y-117847407D01*
X152543141Y-117752169D01*
X152495522Y-117704550D01*
X152400284Y-117656930D01*
X152209807Y-117609311D01*
X152114569Y-117561692D01*
X152066950Y-117514073D01*
X152019331Y-117418835D01*
X152019331Y-117323597D01*
X152066950Y-117228359D01*
X152114569Y-117180740D01*
X152209807Y-117133121D01*
X152447903Y-117133121D01*
X152590760Y-117180740D01*
X152876474Y-117133121D02*
X153447903Y-117133121D01*
X153162188Y-118133121D02*
X153162188Y-117133121D01*
X153971712Y-117133121D02*
X154162189Y-117133121D01*
X154257427Y-117180740D01*
X154352665Y-117275978D01*
X154400284Y-117466454D01*
X154400284Y-117799788D01*
X154352665Y-117990264D01*
X154257427Y-118085502D01*
X154162189Y-118133121D01*
X153971712Y-118133121D01*
X153876474Y-118085502D01*
X153781236Y-117990264D01*
X153733617Y-117799788D01*
X153733617Y-117466454D01*
X153781236Y-117275978D01*
X153876474Y-117180740D01*
X153971712Y-117133121D01*
X155400284Y-118133121D02*
X155066950Y-117656930D01*
X154828855Y-118133121D02*
X154828855Y-117133121D01*
X155209808Y-117133121D01*
X155305046Y-117180740D01*
X155352665Y-117228359D01*
X155400284Y-117323597D01*
X155400284Y-117466454D01*
X155352665Y-117561692D01*
X155305046Y-117609311D01*
X155209808Y-117656930D01*
X154828855Y-117656930D01*
X143779217Y-112965574D02*
X143779217Y-113632241D01*
X143541121Y-112584622D02*
X143303026Y-113298908D01*
X143922074Y-113298908D01*
X153257927Y-112632241D02*
X153876975Y-112632241D01*
X153543641Y-113013193D01*
X153686499Y-113013193D01*
X153781737Y-113060812D01*
X153829356Y-113108431D01*
X153876975Y-113203670D01*
X153876975Y-113441765D01*
X153829356Y-113537003D01*
X153781737Y-113584622D01*
X153686499Y-113632241D01*
X153400784Y-113632241D01*
X153305546Y-113584622D01*
X153257927Y-113537003D01*
X153305546Y-99727759D02*
X153353165Y-99680140D01*
X153448403Y-99632521D01*
X153686499Y-99632521D01*
X153781737Y-99680140D01*
X153829356Y-99727759D01*
X153876975Y-99822997D01*
X153876975Y-99918235D01*
X153829356Y-100061092D01*
X153257927Y-100632521D01*
X153876975Y-100632521D01*
X143874455Y-100632521D02*
X143303026Y-100632521D01*
X143588740Y-100632521D02*
X143588740Y-99632521D01*
X143493502Y-99775378D01*
X143398264Y-99870616D01*
X143303026Y-99918235D01*
X138366667Y-103032381D02*
X138700000Y-104032381D01*
X139033334Y-103032381D01*
X139938096Y-103937143D02*
X139890477Y-103984762D01*
X139747620Y-104032381D01*
X139652382Y-104032381D01*
X139509524Y-103984762D01*
X139414286Y-103889524D01*
X139366667Y-103794286D01*
X139319048Y-103603810D01*
X139319048Y-103460952D01*
X139366667Y-103270476D01*
X139414286Y-103175238D01*
X139509524Y-103080000D01*
X139652382Y-103032381D01*
X139747620Y-103032381D01*
X139890477Y-103080000D01*
X139938096Y-103127619D01*
X140938096Y-103937143D02*
X140890477Y-103984762D01*
X140747620Y-104032381D01*
X140652382Y-104032381D01*
X140509524Y-103984762D01*
X140414286Y-103889524D01*
X140366667Y-103794286D01*
X140319048Y-103603810D01*
X140319048Y-103460952D01*
X140366667Y-103270476D01*
X140414286Y-103175238D01*
X140509524Y-103080000D01*
X140652382Y-103032381D01*
X140747620Y-103032381D01*
X140890477Y-103080000D01*
X140938096Y-103127619D01*
X168148096Y-115780000D02*
X168052858Y-115732381D01*
X167910001Y-115732381D01*
X167767143Y-115780000D01*
X167671905Y-115875238D01*
X167624286Y-115970476D01*
X167576667Y-116160952D01*
X167576667Y-116303810D01*
X167624286Y-116494286D01*
X167671905Y-116589524D01*
X167767143Y-116684762D01*
X167910001Y-116732381D01*
X168005239Y-116732381D01*
X168148096Y-116684762D01*
X168195715Y-116637143D01*
X168195715Y-116303810D01*
X168005239Y-116303810D01*
X168624286Y-116732381D02*
X168624286Y-115732381D01*
X169195715Y-116732381D01*
X169195715Y-115732381D01*
X169671905Y-116732381D02*
X169671905Y-115732381D01*
X169910000Y-115732381D01*
X170052858Y-115780000D01*
X170148096Y-115875238D01*
X170195715Y-115970476D01*
X170243334Y-116160952D01*
X170243334Y-116303810D01*
X170195715Y-116494286D01*
X170148096Y-116589524D01*
X170052858Y-116684762D01*
X169910000Y-116732381D01*
X169671905Y-116732381D01*
M02*
